#!OML:ASF H:\Terrain\Walking\May29\JustinRory\Justin.ASF
:FULLY-SPECIFIED
:DEGREES
48
root 13.0355 16.3013 15.4791 35.76 -79.9872 -23.8952
lowerback 27.7788 -0.210535 -21.7894
upperback 2.94616 -6.35218 7.69095
thorax -8.37566 -2.47596 23.0324
lowerneck -9.41973 -7.73028 -18.9063
upperneck 30.4088 -11.3156 9.76223
head 13.5184 -6.36402 5.29693
rclavicle -3.06128e-014 -7.95139e-015
rhumerus -12.3123 28.103 -83.9775
rradius 62.5889
rwrist -8.88648
rhand -21.6611 31.2928
rfingers 7.12502
rthumb 4.73605 1.36569
lclavicle -3.06128e-014 -7.95139e-015
lhumerus 84.4792 -58.7638 39.407
lradius 43.249
lwrist -31.0625
lhand -1.8561 27.9127
lfingers 7.12502
lthumb 23.8114 56.4571
rfemur -63.1023 -4.72927 32.051
rtibia 93.5692
rfoot -13.1716 -7.18112
rtoes -3.53179
lfemur -39.2711 12.5458 -12.795
ltibia 66.5618
lfoot -32.9773 2.98831
ltoes -24.9034
49
root 13.0214 16.3024 15.4099 37.7966 -79.7287 -25.8863
lowerback 28.4295 -0.276728 -21.2118
upperback 2.97226 -6.40828 7.58508
thorax -8.69328 -2.47706 22.6198
lowerneck -9.6458 -7.62344 -18.7979
upperneck 30.5355 -11.1678 9.83382
head 13.5891 -6.27774 5.33259
rclavicle -1.16885e-013 4.6118e-014
rhumerus -12.3752 25.9276 -84.3668
rradius 63.764
rwrist -8.30033
rhand -20.5283 31.5462
rfingers 7.12502
rthumb 5.82976 1.64642
lclavicle -1.16885e-013 4.6118e-014
lhumerus 84.7658 -58.9989 39.2559
lradius 44.2062
lwrist -30.8069
lhand -2.0848 28.1242
lfingers 7.12502
lthumb 23.5921 56.6969
rfemur -65.2163 -3.86708 31.8478
rtibia 90.5432
rfoot -12.8815 -7.62441
rtoes -1.29626
lfemur -39.3415 12.2517 -11.8042
ltibia 66.5458
lfoot -32.8542 3.11096
ltoes -26.626
50
root 12.9914 16.3035 15.3188 38.1125 -79.5676 -26.6233
lowerback 29.5298 -0.0982953 -21.205
upperback 3.00809 -6.42772 7.45265
thorax -9.15131 -2.42533 22.5271
lowerneck -9.42288 -7.38578 -18.6287
upperneck 30.5129 -10.9419 9.94866
head 13.4795 -6.16142 5.39924
rclavicle -4.37326e-014 -4.05521e-014
rhumerus -12.7058 25.3175 -84.3813
rradius 65.0818
rwrist -9.18165
rhand -20.3874 31.1619
rfingers 7.12502
rthumb 5.9658 1.26592
lclavicle -4.37326e-014 -4.05521e-014
lhumerus 84.6912 -59.4786 39.4574
lradius 45.0706
lwrist -30.6456
lhand -1.86939 28.1442
lfingers 7.12502
lthumb 23.7987 56.6902
rfemur -66.0568 -2.83031 30.7798
rtibia 86.6715
rfoot -12.4387 -7.66937
rtoes 7.08864
lfemur -38.6884 12.1511 -10.965
ltibia 66.4878
lfoot -33.0146 2.95182
ltoes -26.2991
51
root 12.9774 16.2763 15.262 37.2269 -78.9889 -25.6803
lowerback 30.3612 -0.395333 -20.5579
upperback 2.88002 -6.80134 7.20804
thorax -9.58041 -2.54844 22.0191
lowerneck -9.0873 -7.07487 -18.5804
upperneck 30.477 -10.6854 10.3007
head 13.3574 -6.02673 5.59201
rclavicle -3.10104e-014 -7.95139e-015
rhumerus -13.3297 23.2675 -85.0201
rradius 66.0268
rwrist -8.42734
rhand -20.5907 32.2007
rfingers 7.12502
rthumb 5.76953 2.29922
lclavicle -3.10104e-014 -7.95139e-015
lhumerus 84.3614 -60.0568 39.8818
lradius 45.9257
lwrist -30.4565
lhand -2.05177 28.0731
lfingers 7.12502
lthumb 23.6237 56.6418
rfemur -67.4135 -2.54219 29.5764
rtibia 82.4863
rfoot -11.3795 -7.70889
rtoes 11.2651
lfemur -38.9288 11.5897 -10.5379
ltibia 66.6227
lfoot -33.2827 2.78485
ltoes -24.6794
52
root 12.9574 16.2345 15.1708 39.4006 -78.3468 -27.6935
lowerback 30.8232 -0.572208 -20.1391
upperback 2.96171 -6.96678 7.35223
thorax -9.6572 -2.64342 22.0484
lowerneck -9.28023 -6.80852 -18.9245
upperneck 30.5389 -10.2643 10.5685
head 13.3854 -5.85111 5.83274
rclavicle 3.18055e-015 1.74931e-014
rhumerus -13.5672 22.233 -85.2259
rradius 67.0454
rwrist -7.73013
rhand -21.824 33.5272
rfingers 7.12502
rthumb 4.57874 3.59673
lclavicle 3.18055e-015 1.74931e-014
lhumerus 83.5006 -60.1698 40.9634
lradius 46.8658
lwrist -30.4381
lhand -2.04981 27.7543
lfingers 7.12502
lthumb 23.6256 56.3228
rfemur -68.4283 -1.61009 28.8701
rtibia 77.79
rfoot -9.40284 -8.12675
rtoes 5.1493
lfemur -39.4046 11.7893 -9.47358
ltibia 66.9226
lfoot -33.5007 2.39663
ltoes -23.8251
53
root 12.9385 16.2173 15.0812 40.3705 -77.2841 -28.7184
lowerback 31.6545 -0.901598 -19.3277
upperback 3.14993 -7.25716 7.52663
thorax -9.76439 -2.82429 21.9475
lowerneck -9.70296 -6.56854 -19.0058
upperneck 30.5721 -9.79652 10.6032
head 13.4069 -5.63648 5.93348
rclavicle 8.74653e-015 1.59028e-014
rhumerus -13.5501 20.8706 -85.7489
rradius 67.8429
rwrist -6.36579
rhand -23.4928 33.6484
rfingers 7.12502
rthumb 2.96714 3.68929
lclavicle 8.74653e-015 1.59028e-014
lhumerus 82.743 -60.0849 41.9133
lradius 47.7652
lwrist -30.8092
lhand -1.82499 27.2155
lfingers 7.12502
lthumb 23.8412 55.7559
rfemur -69.0392 -0.861882 27.5012
rtibia 73.2994
rfoot -7.04121 -7.83953
rtoes 8.0227
lfemur -39.7475 11.7442 -8.35314
ltibia 67.1382
lfoot -33.6181 2.27386
ltoes -24.0314
54
root 12.9079 16.1858 15.0157 35.5885 -76.3669 -24.4328
lowerback 33.2239 -1.33229 -19.0245
upperback 3.22015 -8.03081 7.3333
thorax -10.0535 -3.17923 21.8771
lowerneck -9.83975 -6.13375 -18.9361
upperneck 30.6147 -9.10287 10.4879
head 13.3058 -5.33812 5.98923
rclavicle -8.66701e-014 7.95139e-015
rhumerus -13.8374 19.8408 -86.6534
rradius 68.7065
rwrist -4.89179
rhand -25.212 33.0629
rfingers 7.12502
rthumb 1.30686 3.08716
lclavicle -8.66701e-014 7.95139e-015
lhumerus 81.4158 -60.1612 43.2472
lradius 48.6126
lwrist -31.1307
lhand -2.12603 26.7308
lfingers 7.12502
lthumb 23.5525 55.3086
rfemur -68.6596 -1.00426 24.4734
rtibia 68.7328
rfoot -3.97362 -7.59465
rtoes 13.3961
lfemur -39.4996 10.7169 -8.46191
ltibia 67.3098
lfoot -33.7946 2.41695
ltoes -23.9706
55
root 12.8718 16.1928 14.9348 31.2117 -75.2771 -20.6553
lowerback 34.68 -1.67822 -18.8846
upperback 3.45078 -8.71026 7.25841
thorax -10.1102 -3.53788 22.0035
lowerneck -10.0075 -5.77176 -19.2808
upperneck 30.5175 -8.43186 10.5195
head 13.1929 -5.06771 6.16625
rclavicle 5.1684e-014 1.59028e-015
rhumerus -14.2617 20.3087 -86.8836
rradius 70.3321
rwrist -4.41895
rhand -27.168 31.8828
rfingers 7.12502
rthumb -0.582373 1.90385
lclavicle 5.1684e-014 1.59028e-015
lhumerus 80.01 -60.0762 44.795
lradius 49.5339
lwrist -31.6599
lhand -2.78373 26.0508
lfingers 7.12502
lthumb 22.9215 54.7084
rfemur -68.1719 -1.51543 22.1286
rtibia 64.9586
rfoot 0.350591 -7.52916
rtoes 3.37075
lfemur -38.9517 9.59491 -8.40026
ltibia 67.2815
lfoot -33.5777 2.16462
ltoes -23.1024
56
root 12.8242 16.156 14.831 30.3314 -73.9255 -20.2244
lowerback 35.6806 -2.07988 -18.3705
upperback 3.76525 -9.19301 7.41219
thorax -10.0013 -3.85155 22.1122
lowerneck -10.1285 -5.45374 -19.7158
upperneck 30.4141 -7.87766 10.7323
head 13.0999 -4.84103 6.4149
rclavicle -4.77083e-015 -8.42847e-014
rhumerus -14.8416 20.7885 -87.2094
rradius 72.0707
rwrist -3.84115
rhand -29.6321 30.9231
rfingers 7.12502
rthumb -2.96212 0.963921
lclavicle -4.77083e-015 -8.42847e-014
lhumerus 77.9773 -59.8673 46.8748
lradius 50.5494
lwrist -32.5097
lhand -2.48646 24.4878
lfingers 7.12502
lthumb 23.2067 53.1096
rfemur -67.3772 -1.12704 19.9012
rtibia 60.9897
rfoot 4.45955 -7.34937
rtoes -0.448873
lfemur -38.9816 9.12922 -7.37424
ltibia 67.6635
lfoot -33.344 1.56788
ltoes -23.3264
57
root 12.7638 16.096 14.7093 30.2077 -72.9573 -20.5744
lowerback 36.5872 -2.32346 -18.2062
upperback 4.03239 -9.59472 7.50853
thorax -9.8889 -4.10952 22.3166
lowerneck -10.1976 -5.06208 -20.0383
upperneck 30.4936 -7.29343 10.9499
head 13.0544 -4.60477 6.65807
rclavicle -5.48646e-014 -7.95139e-015
rhumerus -15.517 20.5824 -88.2487
rradius 73.4262
rwrist -2.82628
rhand -31.8885 31.5242
rfingers 7.12502
rthumb -5.14109 1.60652
lclavicle -5.48646e-014 -7.95139e-015
lhumerus 75.0959 -59.5856 49.573
lradius 51.5094
lwrist -33.4071
lhand -1.47089 22.2685
lfingers 7.12502
lthumb 24.1808 50.7642
rfemur -66.3621 0.00134797 17.3124
rtibia 57.3394
rfoot 7.95973 -7.41628
rtoes 0.631456
lfemur -39.0551 9.32062 -6.25843
ltibia 68.3203
lfoot -33.2839 0.868835
ltoes -24.3462
58
root 12.7006 16.0325 14.583 30.1563 -71.8085 -20.8025
lowerback 37.2807 -2.70918 -17.9079
upperback 4.29332 -10.0751 7.63289
thorax -9.67903 -4.4237 22.4864
lowerneck -10.3758 -4.684 -20.741
upperneck 30.6566 -6.6328 11.2116
head 13.0705 -4.37364 7.00075
rclavicle -1.03368e-014 -4.77083e-014
rhumerus -15.9222 20.3673 -89.3266
rradius 74.6303
rwrist -2.26699
rhand -33.3918 33.144
rfingers 7.12502
rthumb -6.59244 3.26665
lclavicle -1.03368e-014 -4.77083e-014
lhumerus 72.2117 -59.062 52.2912
lradius 52.3906
lwrist -34.0577
lhand -0.98803 19.4928
lfingers 7.12502
lthumb 24.6437 47.9262
rfemur -65.4344 0.95552 14.8967
rtibia 53.902
rfoot 11.3557 -7.07914
rtoes 1.36948
lfemur -39.5248 9.48591 -5.07438
ltibia 69.2353
lfoot -33.1792 0.198915
ltoes -25.1271
